<svg width="256" height="256" viewBox="0 0 256 256" fill="none" xmlns="http://www.w3.org/2000/svg">
<rect width="256" height="256" fill="white"/>
<path d="M60.9425 158V95.2727H77.8086V106.217H78.462C79.6055 102.324 81.5249 99.3838 84.2202 97.3963C86.9155 95.3816 90.0192 94.3743 93.5312 94.3743C94.4025 94.3743 95.3417 94.4287 96.3491 94.5376C97.3564 94.6465 98.2412 94.7963 99.0036 94.9869V110.424C98.1868 110.179 97.0569 109.961 95.614 109.77C94.171 109.58 92.8506 109.484 91.6527 109.484C89.0935 109.484 86.8066 110.042 84.7919 111.159C82.8045 112.248 81.2254 113.772 80.0547 115.733C78.9112 117.693 78.3395 119.953 78.3395 122.512V158H60.9425ZM133.665 159.225C127.212 159.225 121.658 157.918 117.003 155.305C112.375 152.664 108.808 148.934 106.303 144.115C103.799 139.269 102.546 133.538 102.546 126.922C102.546 120.47 103.799 114.807 106.303 109.934C108.808 105.06 112.334 101.262 116.88 98.5398C121.454 95.8172 126.818 94.456 132.971 94.456C137.109 94.456 140.961 95.123 144.528 96.457C148.122 97.7638 151.252 99.7377 153.921 102.379C156.616 105.019 158.712 108.341 160.21 112.343C161.707 116.318 162.456 120.973 162.456 126.31V131.088H109.489V120.306H146.08C146.08 117.802 145.535 115.583 144.446 113.65C143.357 111.717 141.846 110.206 139.913 109.117C138.007 108.001 135.788 107.442 133.256 107.442C130.616 107.442 128.274 108.055 126.232 109.28C124.218 110.478 122.639 112.098 121.495 114.14C120.352 116.155 119.766 118.401 119.739 120.878V131.129C119.739 134.232 120.311 136.914 121.454 139.174C122.625 141.433 124.272 143.176 126.396 144.401C128.519 145.626 131.038 146.239 133.951 146.239C135.884 146.239 137.653 145.966 139.26 145.422C140.866 144.877 142.241 144.061 143.384 142.972C144.528 141.883 145.399 140.549 145.998 138.969L162.088 140.031C161.271 143.897 159.597 147.273 157.065 150.159C154.56 153.018 151.321 155.25 147.346 156.857C143.398 158.436 138.838 159.225 133.665 159.225ZM183.977 159.062C181.282 159.062 178.968 158.109 177.035 156.203C175.129 154.27 174.176 151.956 174.176 149.261C174.176 146.593 175.129 144.306 177.035 142.4C178.968 140.494 181.282 139.541 183.977 139.541C186.591 139.541 188.878 140.494 190.838 142.4C192.798 144.306 193.778 146.593 193.778 149.261C193.778 151.058 193.316 152.705 192.39 154.202C191.492 155.672 190.307 156.857 188.837 157.755C187.367 158.626 185.747 159.062 183.977 159.062ZM183.977 115.12C181.282 115.12 178.968 114.167 177.035 112.261C175.129 110.356 174.176 108.041 174.176 105.319C174.176 102.651 175.129 100.377 177.035 98.4989C178.968 96.5932 181.282 95.6403 183.977 95.6403C186.591 95.6403 188.878 96.5932 190.838 98.4989C192.798 100.377 193.778 102.651 193.778 105.319C193.778 107.143 193.316 108.804 192.39 110.301C191.492 111.771 190.307 112.942 188.837 113.813C187.367 114.684 185.747 115.12 183.977 115.12Z" fill="#1693E5"/>
</svg>
