<svg width="128" height="50" viewBox="0 0 128 50" fill="none" xmlns="http://www.w3.org/2000/svg">
<path d="M1.81108 36V19.6364H6.21094V22.4915H6.38139C6.67969 21.4759 7.1804 20.7088 7.88352 20.1903C8.58665 19.6648 9.39631 19.402 10.3125 19.402C10.5398 19.402 10.7848 19.4162 11.0476 19.4446C11.3104 19.473 11.5412 19.5121 11.7401 19.5618V23.5888C11.527 23.5249 11.2322 23.468 10.8558 23.4183C10.4794 23.3686 10.1349 23.3438 9.82244 23.3438C9.15483 23.3438 8.55824 23.4893 8.03267 23.7805C7.5142 24.0646 7.10227 24.4624 6.79688 24.9737C6.49858 25.4851 6.34943 26.0746 6.34943 26.7422V36H1.81108ZM20.7821 36.3196C19.0989 36.3196 17.65 35.9787 16.4355 35.2969C15.2282 34.608 14.2978 33.6349 13.6444 32.3778C12.9909 31.1136 12.6642 29.6186 12.6642 27.8928C12.6642 26.2095 12.9909 24.7322 13.6444 23.4609C14.2978 22.1896 15.2175 21.1989 16.4036 20.4886C17.5968 19.7784 18.9959 19.4233 20.601 19.4233C21.6806 19.4233 22.6855 19.5973 23.6159 19.9453C24.5534 20.2862 25.3702 20.8011 26.0662 21.4901C26.7694 22.179 27.3162 23.0455 27.7069 24.0895C28.0975 25.1264 28.2928 26.3409 28.2928 27.733V28.9794H14.4753V26.1669H24.0208C24.0208 25.5135 23.8787 24.9347 23.5946 24.4304C23.3105 23.9261 22.9164 23.532 22.4121 23.2479C21.915 22.9567 21.3361 22.8111 20.6756 22.8111C19.9867 22.8111 19.3759 22.9709 18.8432 23.2905C18.3176 23.603 17.9057 24.0256 17.6074 24.5582C17.3091 25.0838 17.1564 25.6697 17.1493 26.3161V28.9901C17.1493 29.7997 17.2985 30.4993 17.5968 31.0888C17.9022 31.6783 18.3319 32.1328 18.8858 32.4524C19.4398 32.772 20.0968 32.9318 20.8567 32.9318C21.361 32.9318 21.8226 32.8608 22.2417 32.7188C22.6607 32.5767 23.0194 32.3636 23.3176 32.0795C23.6159 31.7955 23.8432 31.4474 23.9995 31.0355L28.1969 31.3125C27.9838 32.321 27.5471 33.2017 26.8865 33.9545C26.2331 34.7003 25.388 35.2827 24.351 35.7017C23.3212 36.1136 22.1316 36.3196 20.7821 36.3196ZM33.9071 36.277C33.204 36.277 32.6003 36.0284 32.0961 35.5312C31.5989 35.027 31.3503 34.4233 31.3503 33.7202C31.3503 33.0241 31.5989 32.4276 32.0961 31.9304C32.6003 31.4332 33.204 31.1847 33.9071 31.1847C34.589 31.1847 35.1855 31.4332 35.6969 31.9304C36.2083 32.4276 36.464 33.0241 36.464 33.7202C36.464 34.1889 36.3432 34.6186 36.1017 35.0092C35.8674 35.3928 35.5584 35.7017 35.1749 35.9361C34.7914 36.1634 34.3688 36.277 33.9071 36.277ZM33.9071 24.8139C33.204 24.8139 32.6003 24.5653 32.0961 24.0682C31.5989 23.571 31.3503 22.9673 31.3503 22.2571C31.3503 21.5611 31.5989 20.968 32.0961 20.478C32.6003 19.9808 33.204 19.7322 33.9071 19.7322C34.589 19.7322 35.1855 19.9808 35.6969 20.478C36.2083 20.968 36.464 21.5611 36.464 22.2571C36.464 22.733 36.3432 23.1662 36.1017 23.5568C35.8674 23.9403 35.5584 24.2457 35.1749 24.473C34.7914 24.7003 34.3688 24.8139 33.9071 24.8139Z" fill="#1693E5"/>
<path d="M50.042 32.017H57.5C58.556 32.017 59.48 31.896 60.272 31.654C61.064 31.412 61.724 31.027 62.252 30.499C62.78 29.96 63.176 29.267 63.44 28.42C63.704 27.562 63.836 26.5225 63.836 25.3015C63.836 24.1245 63.6985 23.129 63.4235 22.315C63.1595 21.501 62.758 20.841 62.219 20.335C61.691 19.818 61.031 19.4495 60.239 19.2295C59.458 18.9985 58.545 18.883 57.5 18.883H50.042V32.017ZM44.201 37V13.9H58.49C60.118 13.9 61.625 14.1365 63.011 14.6095C64.408 15.0825 65.6125 15.7975 66.6245 16.7545C67.6365 17.7115 68.4285 18.916 69.0005 20.368C69.5725 21.809 69.8585 23.503 69.8585 25.45C69.8585 27.518 69.556 29.2835 68.951 30.7465C68.357 32.2095 67.5485 33.403 66.5255 34.327C65.5025 35.251 64.298 35.9275 62.912 36.3565C61.526 36.7855 60.052 37 58.49 37H44.201ZM81.1295 37V19.081H72.3515V13.9H95.765V19.081H86.9705V37H81.1295ZM99.4373 37V13.9H120.722V18.883H105.278V23.239H113.891V28.222H105.278V37H99.4373Z" fill="black"/>
</svg>
