<svg width="256" height="256" viewBox="0 0 256 256" fill="none" xmlns="http://www.w3.org/2000/svg">
<rect width="256" height="256" fill="white"/>
<path d="M32.9006 176V86.5455H56.9531V102.153H57.8849C59.5156 96.6013 62.2528 92.4081 66.0966 89.5739C69.9403 86.7008 74.3665 85.2642 79.375 85.2642C80.6174 85.2642 81.9569 85.3419 83.3935 85.4972C84.83 85.6525 86.0919 85.866 87.179 86.1378V108.152C86.0142 107.803 84.4029 107.492 82.3452 107.22C80.2874 106.948 78.4044 106.812 76.696 106.812C73.0464 106.812 69.785 107.608 66.9119 109.2C64.0777 110.753 61.8258 112.928 60.1562 115.723C58.5256 118.518 57.7102 121.741 57.7102 125.391V176H32.9006ZM136.609 177.747C127.407 177.747 119.487 175.884 112.848 172.156C106.247 168.39 101.161 163.071 97.5891 156.199C94.0172 149.288 92.2312 141.115 92.2312 131.68C92.2312 122.479 94.0172 114.403 97.5891 107.453C101.161 100.503 106.189 95.0871 112.673 91.2045C119.196 87.322 126.844 85.3807 135.619 85.3807C141.52 85.3807 147.014 86.3319 152.1 88.2344C157.225 90.098 161.69 92.9129 165.495 96.679C169.339 100.445 172.329 105.182 174.464 110.889C176.6 116.558 177.667 123.197 177.667 130.807V137.621H102.132V122.246H154.314C154.314 118.674 153.537 115.509 151.984 112.753C150.431 109.996 148.276 107.841 145.52 106.288C142.802 104.696 139.637 103.901 136.027 103.901C132.261 103.901 128.922 104.774 126.01 106.521C123.136 108.23 120.885 110.54 119.254 113.452C117.623 116.325 116.788 119.528 116.75 123.061V137.679C116.75 142.105 117.565 145.929 119.196 149.152C120.865 152.375 123.214 154.859 126.243 156.607C129.271 158.354 132.862 159.227 137.017 159.227C139.773 159.227 142.297 158.839 144.588 158.062C146.878 157.286 148.839 156.121 150.47 154.568C152.1 153.015 153.343 151.113 154.197 148.861L177.143 150.375C175.978 155.888 173.591 160.703 169.98 164.818C166.408 168.895 161.788 172.079 156.119 174.369C150.489 176.621 143.986 177.747 136.609 177.747ZM208.359 177.514C204.515 177.514 201.215 176.155 198.458 173.438C195.741 170.681 194.382 167.381 194.382 163.537C194.382 159.732 195.741 156.471 198.458 153.753C201.215 151.035 204.515 149.676 208.359 149.676C212.086 149.676 215.348 151.035 218.143 153.753C220.939 156.471 222.336 159.732 222.336 163.537C222.336 166.099 221.676 168.448 220.356 170.584C219.075 172.68 217.386 174.369 215.289 175.651C213.193 176.893 210.883 177.514 208.359 177.514ZM208.359 114.849C204.515 114.849 201.215 113.491 198.458 110.773C195.741 108.055 194.382 104.755 194.382 100.872C194.382 97.0672 195.741 93.8253 198.458 91.1463C201.215 88.4285 204.515 87.0696 208.359 87.0696C212.086 87.0696 215.348 88.4285 218.143 91.1463C220.939 93.8253 222.336 97.0672 222.336 100.872C222.336 103.473 221.676 105.842 220.356 107.977C219.075 110.074 217.386 111.743 215.289 112.986C213.193 114.228 210.883 114.849 208.359 114.849Z" fill="#1693E5"/>
</svg>
